<mxfile modified="2022-04-27T10:49:29.054Z" host="app.diagrams.net" agent="5.0 (X11; Linux x86_64) AppleWebKit/537.36 (KHTML, like Gecko) Chrome/99.0.4844.84 Safari/537.36" etag="RCC3CzCSUb5FPTscOHbC" version="17.4.6" type="github">
  <diagram id="Ht1M8jgEwFfnCIfOTk4-" name="Page-1">
    <mxGraphModel dx="1135" dy="671" grid="1" gridSize="10" guides="1" tooltips="1" connect="1" arrows="1" fold="1" page="1" pageScale="1" pageWidth="1169" pageHeight="827" math="0" shadow="0">
      <root>
        <mxCell id="0" />
        <mxCell id="1" parent="0" />
        <mxCell id="-QjtrjUzRDEMRZ5MF8oH-47" value="Architecture" style="text;html=1;resizable=0;points=[];autosize=1;align=left;verticalAlign=top;spacingTop=-4;fontSize=30;fontStyle=1" parent="1" vertex="1">
          <mxGeometry x="56.5" y="64.5" width="190" height="40" as="geometry" />
        </mxCell>
        <mxCell id="-QjtrjUzRDEMRZ5MF8oH-48" value="thachnv92" style="text;html=1;resizable=0;points=[];autosize=1;align=left;verticalAlign=top;spacingTop=-4;fontSize=16;" parent="1" vertex="1">
          <mxGeometry x="56.5" y="114.5" width="90" height="20" as="geometry" />
        </mxCell>
        <mxCell id="SCVMTBWpLvtzJIhz15lM-1" value="" style="line;strokeWidth=2;html=1;fontSize=14;" parent="1" vertex="1">
          <mxGeometry x="40" y="139.5" width="1080" height="10" as="geometry" />
        </mxCell>
        <mxCell id="OtEpz_7MlrnOIfY_bL_q-7" value="&lt;font style=&quot;font-size: 18px&quot;&gt;Availability zone A&lt;/font&gt;" style="sketch=0;outlineConnect=0;gradientColor=none;html=1;whiteSpace=wrap;fontSize=12;fontStyle=0;shape=mxgraph.aws4.group;grIcon=mxgraph.aws4.group_availability_zone;strokeColor=#0000FF;fillColor=none;verticalAlign=top;align=left;spacingLeft=30;fontColor=#545B64;dashed=1;strokeWidth=2;" vertex="1" parent="1">
          <mxGeometry x="160" y="200" width="360" height="600" as="geometry" />
        </mxCell>
        <mxCell id="OtEpz_7MlrnOIfY_bL_q-10" value="&lt;font style=&quot;font-size: 18px&quot;&gt;VPC&lt;/font&gt;" style="points=[[0,0],[0.25,0],[0.5,0],[0.75,0],[1,0],[1,0.25],[1,0.5],[1,0.75],[1,1],[0.75,1],[0.5,1],[0.25,1],[0,1],[0,0.75],[0,0.5],[0,0.25]];outlineConnect=0;gradientColor=none;html=1;whiteSpace=wrap;fontSize=12;fontStyle=0;container=1;pointerEvents=0;collapsible=0;recursiveResize=0;shape=mxgraph.aws4.group;grIcon=mxgraph.aws4.group_vpc;strokeColor=#248814;fillColor=none;verticalAlign=top;align=left;spacingLeft=30;fontColor=#AAB7B8;dashed=0;" vertex="1" parent="1">
          <mxGeometry x="40" y="240" width="1080" height="520" as="geometry" />
        </mxCell>
        <mxCell id="OtEpz_7MlrnOIfY_bL_q-14" value="Public subnet" style="points=[[0,0],[0.25,0],[0.5,0],[0.75,0],[1,0],[1,0.25],[1,0.5],[1,0.75],[1,1],[0.75,1],[0.5,1],[0.25,1],[0,1],[0,0.75],[0,0.5],[0,0.25]];outlineConnect=0;gradientColor=none;html=1;whiteSpace=wrap;fontSize=12;fontStyle=0;container=1;pointerEvents=0;collapsible=0;recursiveResize=0;shape=mxgraph.aws4.group;grIcon=mxgraph.aws4.group_security_group;grStroke=0;strokeColor=#248814;fillColor=#E9F3E6;verticalAlign=top;align=left;spacingLeft=30;fontColor=#248814;dashed=0;strokeWidth=10;shadow=0;sketch=0;backgroundOutline=0;" vertex="1" parent="OtEpz_7MlrnOIfY_bL_q-10">
          <mxGeometry x="160" y="40" width="280" height="150" as="geometry" />
        </mxCell>
        <mxCell id="OtEpz_7MlrnOIfY_bL_q-15" value="Private subnet" style="points=[[0,0],[0.25,0],[0.5,0],[0.75,0],[1,0],[1,0.25],[1,0.5],[1,0.75],[1,1],[0.75,1],[0.5,1],[0.25,1],[0,1],[0,0.75],[0,0.5],[0,0.25]];outlineConnect=0;gradientColor=none;html=1;whiteSpace=wrap;fontSize=12;fontStyle=0;container=1;pointerEvents=0;collapsible=0;recursiveResize=0;shape=mxgraph.aws4.group;grIcon=mxgraph.aws4.group_security_group;grStroke=0;strokeColor=#147EBA;fillColor=#E6F2F8;verticalAlign=top;align=left;spacingLeft=30;fontColor=#147EBA;dashed=0;strokeWidth=10;shadow=0;sketch=0;backgroundOutline=0;" vertex="1" parent="OtEpz_7MlrnOIfY_bL_q-10">
          <mxGeometry x="160" y="200" width="280" height="150" as="geometry" />
        </mxCell>
        <mxCell id="OtEpz_7MlrnOIfY_bL_q-18" value="Private subnet" style="points=[[0,0],[0.25,0],[0.5,0],[0.75,0],[1,0],[1,0.25],[1,0.5],[1,0.75],[1,1],[0.75,1],[0.5,1],[0.25,1],[0,1],[0,0.75],[0,0.5],[0,0.25]];outlineConnect=0;gradientColor=none;html=1;whiteSpace=wrap;fontSize=12;fontStyle=0;container=1;pointerEvents=0;collapsible=0;recursiveResize=0;shape=mxgraph.aws4.group;grIcon=mxgraph.aws4.group_security_group;grStroke=0;strokeColor=#147EBA;fillColor=#E6F2F8;verticalAlign=top;align=left;spacingLeft=30;fontColor=#147EBA;dashed=0;strokeWidth=10;shadow=0;sketch=0;backgroundOutline=0;" vertex="1" parent="OtEpz_7MlrnOIfY_bL_q-10">
          <mxGeometry x="160" y="360" width="280" height="150" as="geometry" />
        </mxCell>
        <mxCell id="OtEpz_7MlrnOIfY_bL_q-20" value="Amazon RDS" style="sketch=0;outlineConnect=0;fontColor=#232F3E;gradientColor=none;strokeColor=#ffffff;fillColor=#232F3E;dashed=0;verticalLabelPosition=middle;verticalAlign=bottom;align=center;html=1;whiteSpace=wrap;fontSize=10;fontStyle=1;spacing=3;shape=mxgraph.aws4.productIcon;prIcon=mxgraph.aws4.rds;shadow=0;" vertex="1" parent="OtEpz_7MlrnOIfY_bL_q-18">
          <mxGeometry x="100" y="40" width="80" height="100" as="geometry" />
        </mxCell>
        <mxCell id="OtEpz_7MlrnOIfY_bL_q-22" value="Public subnet" style="points=[[0,0],[0.25,0],[0.5,0],[0.75,0],[1,0],[1,0.25],[1,0.5],[1,0.75],[1,1],[0.75,1],[0.5,1],[0.25,1],[0,1],[0,0.75],[0,0.5],[0,0.25]];outlineConnect=0;gradientColor=none;html=1;whiteSpace=wrap;fontSize=12;fontStyle=0;container=1;pointerEvents=0;collapsible=0;recursiveResize=0;shape=mxgraph.aws4.group;grIcon=mxgraph.aws4.group_security_group;grStroke=0;strokeColor=#248814;fillColor=#E9F3E6;verticalAlign=top;align=left;spacingLeft=30;fontColor=#248814;dashed=0;strokeWidth=10;shadow=0;sketch=0;backgroundOutline=0;" vertex="1" parent="OtEpz_7MlrnOIfY_bL_q-10">
          <mxGeometry x="720" y="40" width="280" height="150" as="geometry" />
        </mxCell>
        <mxCell id="OtEpz_7MlrnOIfY_bL_q-23" value="Private subnet" style="points=[[0,0],[0.25,0],[0.5,0],[0.75,0],[1,0],[1,0.25],[1,0.5],[1,0.75],[1,1],[0.75,1],[0.5,1],[0.25,1],[0,1],[0,0.75],[0,0.5],[0,0.25]];outlineConnect=0;gradientColor=none;html=1;whiteSpace=wrap;fontSize=12;fontStyle=0;container=1;pointerEvents=0;collapsible=0;recursiveResize=0;shape=mxgraph.aws4.group;grIcon=mxgraph.aws4.group_security_group;grStroke=0;strokeColor=#147EBA;fillColor=#E6F2F8;verticalAlign=top;align=left;spacingLeft=30;fontColor=#147EBA;dashed=0;strokeWidth=10;shadow=0;sketch=0;backgroundOutline=0;" vertex="1" parent="OtEpz_7MlrnOIfY_bL_q-10">
          <mxGeometry x="720" y="200" width="280" height="150" as="geometry" />
        </mxCell>
        <mxCell id="OtEpz_7MlrnOIfY_bL_q-24" value="Private subnet" style="points=[[0,0],[0.25,0],[0.5,0],[0.75,0],[1,0],[1,0.25],[1,0.5],[1,0.75],[1,1],[0.75,1],[0.5,1],[0.25,1],[0,1],[0,0.75],[0,0.5],[0,0.25]];outlineConnect=0;gradientColor=none;html=1;whiteSpace=wrap;fontSize=12;fontStyle=0;container=1;pointerEvents=0;collapsible=0;recursiveResize=0;shape=mxgraph.aws4.group;grIcon=mxgraph.aws4.group_security_group;grStroke=0;strokeColor=#147EBA;fillColor=#E6F2F8;verticalAlign=top;align=left;spacingLeft=30;fontColor=#147EBA;dashed=0;strokeWidth=10;shadow=0;sketch=0;backgroundOutline=0;" vertex="1" parent="OtEpz_7MlrnOIfY_bL_q-10">
          <mxGeometry x="720" y="360" width="280" height="150" as="geometry" />
        </mxCell>
        <mxCell id="OtEpz_7MlrnOIfY_bL_q-25" value="Amazon RDS" style="sketch=0;outlineConnect=0;fontColor=#232F3E;gradientColor=none;strokeColor=#ffffff;fillColor=#232F3E;dashed=0;verticalLabelPosition=middle;verticalAlign=bottom;align=center;html=1;whiteSpace=wrap;fontSize=10;fontStyle=1;spacing=3;shape=mxgraph.aws4.productIcon;prIcon=mxgraph.aws4.rds;shadow=0;" vertex="1" parent="OtEpz_7MlrnOIfY_bL_q-24">
          <mxGeometry x="100" y="40" width="80" height="100" as="geometry" />
        </mxCell>
        <mxCell id="OtEpz_7MlrnOIfY_bL_q-27" value="Application Load Balancer" style="sketch=0;outlineConnect=0;fontColor=#232F3E;gradientColor=none;strokeColor=#ffffff;fillColor=#232F3E;dashed=0;verticalLabelPosition=middle;verticalAlign=bottom;align=center;html=1;whiteSpace=wrap;fontSize=10;fontStyle=1;spacing=3;shape=mxgraph.aws4.productIcon;prIcon=mxgraph.aws4.application_load_balancer;shadow=0;" vertex="1" parent="OtEpz_7MlrnOIfY_bL_q-10">
          <mxGeometry x="540" y="140" width="80" height="110" as="geometry" />
        </mxCell>
        <mxCell id="OtEpz_7MlrnOIfY_bL_q-19" value="Amazon EC2" style="sketch=0;outlineConnect=0;fontColor=#232F3E;gradientColor=none;strokeColor=#ffffff;fillColor=#232F3E;dashed=0;verticalLabelPosition=middle;verticalAlign=bottom;align=center;html=1;whiteSpace=wrap;fontSize=10;fontStyle=1;spacing=3;shape=mxgraph.aws4.productIcon;prIcon=mxgraph.aws4.ec2;shadow=0;" vertex="1" parent="1">
          <mxGeometry x="300" y="480" width="80" height="100" as="geometry" />
        </mxCell>
        <mxCell id="OtEpz_7MlrnOIfY_bL_q-21" value="Internet&#xa;gateway" style="sketch=0;outlineConnect=0;fontColor=#232F3E;gradientColor=none;strokeColor=#232F3E;fillColor=none;dashed=0;verticalLabelPosition=bottom;verticalAlign=top;align=center;html=1;fontSize=12;fontStyle=0;aspect=fixed;shape=mxgraph.aws4.resourceIcon;resIcon=mxgraph.aws4.internet_gateway;shadow=0;" vertex="1" parent="1">
          <mxGeometry x="570" y="200" width="100" height="100" as="geometry" />
        </mxCell>
        <mxCell id="OtEpz_7MlrnOIfY_bL_q-26" value="&lt;font style=&quot;font-size: 18px&quot;&gt;Availability zone A&lt;/font&gt;" style="sketch=0;outlineConnect=0;gradientColor=none;html=1;whiteSpace=wrap;fontSize=12;fontStyle=0;shape=mxgraph.aws4.group;grIcon=mxgraph.aws4.group_availability_zone;strokeColor=#0000FF;fillColor=none;verticalAlign=top;align=left;spacingLeft=30;fontColor=#545B64;dashed=1;strokeWidth=2;" vertex="1" parent="1">
          <mxGeometry x="720" y="200" width="360" height="600" as="geometry" />
        </mxCell>
        <mxCell id="OtEpz_7MlrnOIfY_bL_q-28" value="Amazon EC2" style="sketch=0;outlineConnect=0;fontColor=#232F3E;gradientColor=none;strokeColor=#ffffff;fillColor=#232F3E;dashed=0;verticalLabelPosition=middle;verticalAlign=bottom;align=center;html=1;whiteSpace=wrap;fontSize=10;fontStyle=1;spacing=3;shape=mxgraph.aws4.productIcon;prIcon=mxgraph.aws4.ec2;shadow=0;" vertex="1" parent="1">
          <mxGeometry x="860" y="480" width="80" height="100" as="geometry" />
        </mxCell>
        <mxCell id="OtEpz_7MlrnOIfY_bL_q-29" value="Amazon EC2" style="sketch=0;outlineConnect=0;fontColor=#232F3E;gradientColor=none;strokeColor=#ffffff;fillColor=#232F3E;dashed=0;verticalLabelPosition=middle;verticalAlign=bottom;align=center;html=1;whiteSpace=wrap;fontSize=10;fontStyle=1;spacing=3;shape=mxgraph.aws4.productIcon;prIcon=mxgraph.aws4.ec2;shadow=0;" vertex="1" parent="1">
          <mxGeometry x="300" y="320" width="80" height="100" as="geometry" />
        </mxCell>
        <mxCell id="OtEpz_7MlrnOIfY_bL_q-31" value="" style="edgeStyle=elbowEdgeStyle;elbow=vertical;endArrow=classic;html=1;rounded=0;fontSize=18;" edge="1" parent="1" source="OtEpz_7MlrnOIfY_bL_q-27" target="OtEpz_7MlrnOIfY_bL_q-19">
          <mxGeometry width="50" height="50" relative="1" as="geometry">
            <mxPoint x="560" y="520" as="sourcePoint" />
            <mxPoint x="610" y="470" as="targetPoint" />
            <Array as="points">
              <mxPoint x="550" y="435" />
              <mxPoint x="490" y="410" />
            </Array>
          </mxGeometry>
        </mxCell>
        <mxCell id="OtEpz_7MlrnOIfY_bL_q-35" value="" style="edgeStyle=elbowEdgeStyle;elbow=vertical;endArrow=classic;html=1;rounded=0;fontSize=18;" edge="1" parent="1" source="OtEpz_7MlrnOIfY_bL_q-27" target="OtEpz_7MlrnOIfY_bL_q-28">
          <mxGeometry width="50" height="50" relative="1" as="geometry">
            <mxPoint x="670" y="439" as="sourcePoint" />
            <mxPoint x="720" y="389" as="targetPoint" />
            <Array as="points">
              <mxPoint x="900" y="435" />
            </Array>
          </mxGeometry>
        </mxCell>
      </root>
    </mxGraphModel>
  </diagram>
</mxfile>
